<svg xmlns="http://www.w3.org/2000/svg" width="64" height="56" viewBox="0 0 64 56"><g transform="translate(-912 -316)"><path d="M2,2V46H62V2H2M0,0H64V48H0Z" transform="translate(912 316)" fill="#212121"/><path d="M0,0H64V2H0Z" transform="translate(912 356)" fill="#212121"/><path d="M-743,4649h-28v-2h8v-8h2v8h8v-8h2v8h8Z" transform="translate(1702 -4277)" fill="#212121"/><path d="M-770.292,4638.293l6.292,6.293,6.292-6.293,1.414,1.414-6.292,6.293,6.292,6.293-1.414,1.414-6.292-6.293-6.292,6.293-1.414-1.414,6.292-6.293-6.292-6.293Z" transform="translate(1708 -4309)" fill="#a70638"/></g></svg>