<svg xmlns="http://www.w3.org/2000/svg" width="100" height="100" viewBox="0 0 100 100">
  <g id="그룹_8157" data-name="그룹 8157" transform="translate(-1096 -320)">
    <circle id="타원_144" data-name="타원 144" cx="50" cy="50" r="50" transform="translate(1096 320)" fill="#f1f2f7"/>
    <g id="_03_icon" data-name="03_icon" transform="translate(1117.197 347.895)">
      <path id="사각형_691" data-name="사각형 691" d="M6,2A4,4,0,0,0,2,6V36a4,4,0,0,0,4,4H36a4,4,0,0,0,4-4V6a4,4,0,0,0-4-4H6M6,0H36a6,6,0,0,1,6,6V36a6,6,0,0,1-6,6H6a6,6,0,0,1-6-6V6A6,6,0,0,1,6,0Z" transform="translate(6.69 1.105)" fill="#343440"/>
      <path id="합치기_50" data-name="합치기 50" d="M6044.8,3000.1a1,1,0,0,1,0-2h12a1,1,0,0,1,0,2Zm0-8a1,1,0,0,1,0-2h24a1,1,0,1,1,0,2Z" transform="translate(-6030.113 -2975)" fill="#343440"/>
    </g>
    <g id="그룹_8128" data-name="그룹 8128" transform="translate(0 11)">
      <circle id="타원_151" data-name="타원 151" cx="11" cy="11" r="11" transform="translate(1152 362)" fill="#41c956"/>
      <path id="합치기_48" data-name="합치기 48" d="M3,8V3H0A1,1,0,0,1-1,2,1,1,0,0,1,0,1H4A1,1,0,0,1,5,2V8A1,1,0,0,1,3,8Z" transform="translate(1167.122 375.878) rotate(180)" fill="#f1f2f7"/>
    </g>
  </g>
</svg>
