<svg xmlns="http://www.w3.org/2000/svg" width="100" height="100" viewBox="0 0 100 100">
  <g id="Icon_main_2차_추가2" transform="translate(-1096 -320)">
    <circle id="타원_144" data-name="타원 144" cx="50" cy="50" r="50" transform="translate(1096 320)" fill="#f1f2f7"/>
    <g id="_03_icon" data-name="03_icon" transform="translate(1117.197 344.895)">
      <path id="사각형_691" data-name="사각형 691" d="M17,2A15,15,0,0,0,2,17V31A15,15,0,0,0,27.607,41.607,14.9,14.9,0,0,0,32,31V17A15,15,0,0,0,17,2m0-2A17,17,0,0,1,34,17V31A17,17,0,0,1,0,31V17A17,17,0,0,1,17,0Z" transform="translate(10.69 1.105)" fill="#343440"/>
      <rect id="사각형_2212" data-name="사각형 2212" width="2" height="12" rx="1" transform="translate(26.69 1.105)" fill="#343440"/>
      <rect id="사각형_2210" data-name="사각형 2210" width="6" height="10" rx="3" transform="translate(24.69 15.105)" fill="#41c956"/>
    </g>
  </g>
</svg>
