<svg xmlns="http://www.w3.org/2000/svg" xmlns:xlink="http://www.w3.org/1999/xlink" width="30.001" height="26.001" viewBox="0 0 30.001 26.001">
  <defs>
    <clipPath id="clip-path">
      <path id="빼기_1" data-name="빼기 1" d="M6374,4314h-13v-26h26v18h-13v8Z" transform="translate(-6319 -3492.001)" fill="#fff" stroke="#707070" stroke-width="1" opacity="0.5"/>
    </clipPath>
  </defs>
  <g id="Icon" transform="translate(-74.5 -784.759)">
    <g id="마스크_그룹_62" data-name="마스크 그룹 62" transform="translate(34.5 -11.239)" clip-path="url(#clip-path)">
      <g id="타원_122" data-name="타원 122" transform="translate(42 795.999)" fill="none" stroke="#fff" stroke-width="2">
        <circle cx="13" cy="13" r="13" stroke="none"/>
        <circle cx="13" cy="13" r="12" fill="none"/>
      </g>
    </g>
    <rect id="사각형_2118" data-name="사각형 2118" width="3" height="2" rx="1" transform="translate(88.5 808.76)" fill="#fff"/>
    <path id="합치기_24" data-name="합치기 24" d="M6365,4293a1,1,0,1,1,1,1A1,1,0,0,1,6365,4293Zm4-3v-1a1,1,0,0,1,2,0v1a1,1,0,0,1-2,0Zm-8,0v-1a1,1,0,0,1,2,0v1a1,1,0,0,1-2,0Z" transform="translate(-6276.5 -3494.24)" fill="#fff"/>
    <path id="패스_13442" data-name="패스 13442" d="M9.58,12.276A5.24,5.24,0,0,1,8.2,13.414a5.053,5.053,0,0,1-2.553.664A5.219,5.219,0,0,1,1.58,12.056" transform="translate(83.92 789.76)" fill="none" stroke="#fff" stroke-linecap="round" stroke-width="2"/>
    <g id="합치기_25" data-name="합치기 25" transform="translate(-6318 -3483)" fill="#ff611d">
      <path d="M 6419.5009765625 4285.76025390625 C 6418.3974609375 4285.76025390625 6417.49951171875 4284.86328125 6417.49951171875 4283.7607421875 L 6417.49951171875 4279.76025390625 C 6417.49951171875 4278.65771484375 6418.3974609375 4277.7607421875 6419.5009765625 4277.7607421875 C 6420.603515625 4277.7607421875 6421.50048828125 4278.65771484375 6421.50048828125 4279.76025390625 L 6421.50048828125 4283.7607421875 C 6421.50048828125 4284.86328125 6420.603515625 4285.76025390625 6419.5009765625 4285.76025390625 Z M 6395.50048828125 4285.76025390625 C 6394.39697265625 4285.76025390625 6393.49951171875 4284.86328125 6393.49951171875 4283.7607421875 L 6393.49951171875 4279.76025390625 C 6393.49951171875 4278.65771484375 6394.39697265625 4277.7607421875 6395.50048828125 4277.7607421875 C 6396.60302734375 4277.7607421875 6397.5 4278.65771484375 6397.5 4279.76025390625 L 6397.5 4283.7607421875 C 6397.5 4284.86328125 6396.60302734375 4285.76025390625 6395.50048828125 4285.76025390625 Z" stroke="none"/>
      <path d="M 6419.5009765625 4284.76025390625 C 6420.05224609375 4284.76025390625 6420.50048828125 4284.31201171875 6420.50048828125 4283.7607421875 L 6420.50048828125 4279.76025390625 C 6420.50048828125 4279.208984375 6420.05224609375 4278.7607421875 6419.5009765625 4278.7607421875 C 6418.94873046875 4278.7607421875 6418.49951171875 4279.208984375 6418.49951171875 4279.76025390625 L 6418.49951171875 4283.7607421875 C 6418.49951171875 4284.31201171875 6418.94873046875 4284.76025390625 6419.5009765625 4284.76025390625 M 6395.50048828125 4284.76025390625 C 6396.0517578125 4284.76025390625 6396.5 4284.31201171875 6396.5 4283.7607421875 L 6396.5 4279.76025390625 C 6396.5 4279.208984375 6396.0517578125 4278.7607421875 6395.50048828125 4278.7607421875 C 6394.94873046875 4278.7607421875 6394.49951171875 4279.208984375 6394.49951171875 4279.76025390625 L 6394.49951171875 4283.7607421875 C 6394.49951171875 4284.31201171875 6394.94873046875 4284.76025390625 6395.50048828125 4284.76025390625 M 6419.5009765625 4286.76025390625 C 6417.84375 4286.76025390625 6416.49951171875 4285.41748046875 6416.49951171875 4283.7607421875 L 6416.49951171875 4279.76025390625 C 6416.49951171875 4278.10498046875 6417.84375 4276.7607421875 6419.5009765625 4276.7607421875 C 6421.15625 4276.7607421875 6422.50048828125 4278.10498046875 6422.50048828125 4279.76025390625 L 6422.50048828125 4283.7607421875 C 6422.50048828125 4285.41748046875 6421.15625 4286.76025390625 6419.5009765625 4286.76025390625 Z M 6395.50048828125 4286.76025390625 C 6393.84375 4286.76025390625 6392.49951171875 4285.41748046875 6392.49951171875 4283.7607421875 L 6392.49951171875 4279.76025390625 C 6392.49951171875 4278.10498046875 6393.84375 4276.7607421875 6395.50048828125 4276.7607421875 C 6397.15771484375 4276.7607421875 6398.5 4278.10498046875 6398.5 4279.76025390625 L 6398.5 4283.7607421875 C 6398.5 4285.41748046875 6397.15771484375 4286.76025390625 6395.50048828125 4286.76025390625 Z" stroke="none" fill="#fff"/>
    </g>
  </g>
</svg>
