<svg xmlns="http://www.w3.org/2000/svg" xmlns:xlink="http://www.w3.org/1999/xlink" width="100" height="100" viewBox="0 0 100 100">
  <defs>
    <clipPath id="clip-path">
      <path id="빼기_11" data-name="빼기 11" d="M8563.689,2343.1h-32v-42h42v30h-10v12Z" transform="translate(-8525 -2300)" fill="#fff" opacity="0.5"/>
    </clipPath>
  </defs>
  <g id="Icon_main_data" transform="translate(-352 -320)">
    <g id="그룹_8213" data-name="그룹 8213" transform="translate(-744)">
      <circle id="타원_144" data-name="타원 144" cx="50" cy="50" r="50" transform="translate(1096 320)" fill="#f1f2f7"/>
      <g id="마스크_그룹_71" data-name="마스크 그룹 71" transform="translate(1117.199 347.895)" clip-path="url(#clip-path)">
        <path id="사각형_2242" data-name="사각형 2242" d="M6,2A4,4,0,0,0,2,6V36a4,4,0,0,0,4,4H36a4,4,0,0,0,4-4V6a4,4,0,0,0-4-4H6M6,0H36a6,6,0,0,1,6,6V36a6,6,0,0,1-6,6H6a6,6,0,0,1-6-6V6A6,6,0,0,1,6,0Z" transform="translate(6.689 1.105)" fill="#343440"/>
      </g>
      <path id="합치기_50" data-name="합치기 50" d="M6044.8,3000.1a1,1,0,0,1,0-2h12a1,1,0,0,1,0,2Zm0-8a1,1,0,0,1,0-2h24a1,1,0,1,1,0,2Z" transform="translate(-4912.916 -2627.104)" fill="#343440"/>
      <path id="빼기_10" data-name="빼기 10" d="M9318,3449a11,11,0,1,1,7.777-3.221A10.932,10.932,0,0,1,9318,3449Zm-1-12.427v5.273a1,1,0,0,0,2,0v-5.273l1.121,1.124a1,1,0,0,0,1.414,0,1.006,1.006,0,0,0,0-1.416l-2.828-2.828a1,1,0,0,0-1.414,0l-2.828,2.828a1,1,0,0,0,1.414,1.416l1.117-1.122Z" transform="translate(-8155 -3054)" fill="#41c956"/>
    </g>
  </g>
</svg>
