<svg xmlns="http://www.w3.org/2000/svg" width="100" height="100" viewBox="0 0 100 100">
  <g id="그룹_8180" data-name="그룹 8180" transform="translate(-538 -320)">
    <circle id="타원_147" data-name="타원 147" cx="50" cy="50" r="50" transform="translate(538 320)" fill="#f1f2f7"/>
    <g id="그룹_8127" data-name="그룹 8127" transform="translate(0 9)">
      <path id="합치기_41" data-name="합치기 41" d="M7172,3337h-10a1,1,0,1,1,0-2h8v-7h2v7h8a1,1,0,1,1,0,2Z" transform="translate(-6582.998 -2955)" fill="#343440"/>
      <path id="패스_13455" data-name="패스 13455" d="M14,38.289A14.662,14.662,0,0,1,3.381,33.737,15.665,15.665,0,0,1-1,22.789a1,1,0,0,1,1-1,1,1,0,0,1,1,1,13.272,13.272,0,0,0,13,13.5,13.272,13.272,0,0,0,13-13.5,1,1,0,0,1,2,0,15.665,15.665,0,0,1-4.381,10.948A14.662,14.662,0,0,1,14,38.289Z" transform="translate(574.5 335.71)" fill="#343440"/>
      <path id="빼기_2" data-name="빼기 2" d="M7170,3360a9.009,9.009,0,0,1-9-9v-4h5a1,1,0,1,0,0-2h-5v-4h5a1,1,0,0,0,0-2h-5v-1a9,9,0,1,1,18,0v1h-5a1,1,0,0,0,0,2h5v4h-5a1,1,0,1,0,0,2h5v4A9.01,9.01,0,0,1,7170,3360Z" transform="translate(-6581.5 -2992)" fill="#41c956"/>
    </g>
  </g>
</svg>
