<svg xmlns="http://www.w3.org/2000/svg" width="13" height="13" viewBox="0 0 13 13"><g transform="translate(2367 3287)" fill="none"><path d="M-2355-3281v-5h-5v-1h6v6Z" stroke="none"/><path d="M -2353.99951171875 -3280.99951171875 L -2355.000244140625 -3280.99951171875 L -2355.000244140625 -3286 L -2359.999755859375 -3286 L -2359.999755859375 -3287 L -2353.99951171875 -3287 L -2353.99951171875 -3280.99951171875 Z" stroke="none" fill="#212121"/></g><g transform="translate(2360 3288)" fill="none"><path d="M-2349-3275h-11v-12h6v1h-5v10h10v-5h1v6Z" stroke="none"/><path d="M -2348.000244140625 -3275.000244140625 L -2359.999755859375 -3275.000244140625 L -2359.999755859375 -3287 L -2353.99951171875 -3287 L -2353.99951171875 -3286 L -2359 -3286 L -2359 -3276 L -2349 -3276 L -2349 -3280.99951171875 L -2348.000244140625 -3280.99951171875 L -2348.000244140625 -3275.000244140625 Z" stroke="none" fill="#212121"/></g><line x1="7" y2="7" transform="translate(5.5 0.5)" fill="none" stroke="#212121" stroke-width="1"/></svg>