<svg xmlns="http://www.w3.org/2000/svg" width="30" height="30" viewBox="0 0 30 30">
  <g id="IconClose" transform="translate(0.5 0.5)">
    <path id="선_30" data-name="선 30" d="M0,29a1,1,0,0,1-.707-.293,1,1,0,0,1,0-1.414l28-28a1,1,0,0,1,1.414,0,1,1,0,0,1,0,1.414l-28,28A1,1,0,0,1,0,29Z" transform="translate(0.5 0.5)"/>
    <path id="선_31" data-name="선 31" d="M28,29a1,1,0,0,1-.707-.293l-28-28a1,1,0,0,1,0-1.414,1,1,0,0,1,1.414,0l28,28A1,1,0,0,1,28,29Z" transform="translate(0.5 0.5)"/>
  </g>
</svg>
