<svg xmlns="http://www.w3.org/2000/svg" width="68" height="68" viewBox="0 0 68 68">
  <g id="그룹_465" data-name="그룹 465" transform="translate(-3 -0.5)">
    <g id="타원_69" data-name="타원 69" transform="translate(3 0.5)" fill="none" stroke="#343440" stroke-width="2">
      <circle cx="34" cy="34" r="34" stroke="none"/>
      <circle cx="34" cy="34" r="33" fill="none"/>
    </g>
    <circle id="타원_75" data-name="타원 75" cx="21" cy="21" r="21" transform="translate(16 13.5)" fill="#41c956"/>
    <path id="패스_9856" data-name="패스 9856" d="M45.2,31.972H43.355V30.558H44.81l-1.544-5.693h1.616l1.446,5.693h2.549l1.491-5.693h1.776l1.491,5.693h2.548l1.447-5.693h1.634l-1.554,5.693h1.466v1.414H57.32l-1.553,5.693H54.116l-1.572-5.693H49.979l-1.563,5.693H46.747Zm2.326,3.271h.125l.852-3.271H46.693Zm4.626-4.685-.844-3.04H51.2l-.835,3.04Zm2.708,4.685h.125l.834-3.271H54.009Z" transform="translate(-14.266 3.635)" fill="#fff"/>
  </g>
</svg>
