<svg xmlns="http://www.w3.org/2000/svg" width="30" height="30" viewBox="0 0 30 30">
  <g id="그룹_8228" data-name="그룹 8228" transform="translate(-287 -482)">
    <g id="그룹_7754" data-name="그룹 7754" transform="translate(-1533 179.364)">
      <g id="그룹_7773" data-name="그룹 7773" transform="translate(0 -3)">
        <path id="타원_73" data-name="타원 73" d="M11,1.6A9.4,9.4,0,1,0,20.4,11,9.411,9.411,0,0,0,11,1.6M11,0A11,11,0,1,1,0,11,11,11,0,0,1,11,0Z" transform="translate(1824 309.818)"/>
        <path id="합치기_23" data-name="합치기 23" d="M9905.181,4338.5a1,1,0,0,1-.994-.641l-2.48-2.48a1,1,0,0,1,1.416-1.413l2.06,2.06,5.5-5.5a1,1,0,0,1,1.416,1.413l-5.915,5.912a.981.981,0,0,1-.228.352.993.993,0,0,1-.708.295Z" transform="translate(-8071.899 -4013.487)"/>
        <path id="합치기_23_-_윤곽선" data-name="합치기 23 - 윤곽선" d="M9905.242,4338.5l-.062,0-.062,0a1.006,1.006,0,0,1-.933-.643l-2.48-2.48a1,1,0,0,1,1.416-1.413l2.06,2.06,5.5-5.5a1,1,0,0,1,1.416,1.413l-5.915,5.912a.981.981,0,0,1-.228.352A.993.993,0,0,1,9905.242,4338.5Z" transform="translate(-8071.899 -4013.487)"/>
      </g>
    </g>
    <rect id="사각형_2252" data-name="사각형 2252" width="30" height="30" transform="translate(287 482)" fill="none"/>
  </g>
</svg>
