<svg xmlns="http://www.w3.org/2000/svg" width="100" height="100" viewBox="0 0 100 100">
  <g id="Icon_main_2차_추가1" transform="translate(-1096 -320)">
    <circle id="타원_144" data-name="타원 144" cx="50" cy="50" r="50" transform="translate(1096 320)" fill="#f1f2f7"/>
    <g id="_03_icon" data-name="03_icon" transform="translate(1118.31 347.895)">
      <path id="사각형_691" data-name="사각형 691" d="M6,2A4,4,0,0,0,2,6V36a4,4,0,0,0,4,4H36a4,4,0,0,0,4-4V6a4,4,0,0,0-4-4H6M6,0H36a6,6,0,0,1,6,6V36a6,6,0,0,1-6,6H6a6,6,0,0,1-6-6V6A6,6,0,0,1,6,0Z" transform="translate(6.69 1.105)" fill="#343440"/>
      <path id="합치기_50" data-name="합치기 50" d="M6044.8,3002.1a1,1,0,1,1,0-2h9a1,1,0,0,1,0,2Zm0-5a1,1,0,1,1,0-2h9a1,1,0,0,1,0,2Zm0-5a1,1,0,1,1,0-2h9a1,1,0,0,1,0,2Z" transform="translate(-6014.113 -2977)" fill="#343440"/>
      <rect id="사각형_2207" data-name="사각형 2207" width="11" height="14" rx="3" transform="translate(14.69 12.106)" fill="#41c956"/>
      <rect id="사각형_2210" data-name="사각형 2210" width="26" height="2" rx="1" transform="translate(14.69 31.105)" fill="#343440"/>
    </g>
  </g>
</svg>
