<svg xmlns="http://www.w3.org/2000/svg" xmlns:xlink="http://www.w3.org/1999/xlink" width="100" height="100" viewBox="0 0 100 100">
  <defs>
    <clipPath id="clip-path">
      <path id="빼기_13" data-name="빼기 13" d="M8562.5,3482.473v-9.663a20.991,20.991,0,0,0,15.732-20.334,21.267,21.267,0,0,0-.213-3h16.48v33h-32Z" transform="translate(-8189.003 -3096.001)" fill="#fff"/>
    </clipPath>
  </defs>
  <g id="Icon_main_QNA" transform="translate(-329 -318)">
    <circle id="타원_144" data-name="타원 144" cx="50" cy="50" r="50" transform="translate(329 318)" fill="#f1f2f7"/>
    <g id="그룹_8215" data-name="그룹 8215" transform="translate(2.999 3.999)">
      <g id="마스크_그룹_72" data-name="마스크 그룹 72" clip-path="url(#clip-path)">
        <path id="합치기_63" data-name="합치기 63" d="M15,2A13,13,0,0,0,2,15V25.676l2.448-2.8,1.511,1.463A13,13,0,0,0,24.192,5.808,12.914,12.914,0,0,0,15,2m0-2A15,15,0,1,1,4.568,25.779L0,31V15A15,15,0,0,1,15,0Z" transform="translate(374.001 385) rotate(-90)" fill="#343440"/>
      </g>
      <text id="A" transform="translate(385.001 375)" fill="#343440" font-size="13" font-family="Roboto-Medium, Roboto" font-weight="500"><tspan x="0" y="0">A</tspan></text>
      <path id="빼기_12" data-name="빼기 12" d="M8562,3474h-22l8.066-6.6A18,18,0,1,1,8562,3474Zm1.312-11.938h0l2.723,2.153,1.442-1.3-2.2-1.714a5.168,5.168,0,0,0,1.615-2.115,7.971,7.971,0,0,0,.575-3.15v-.711a7.821,7.821,0,0,0-.668-3.284,4.954,4.954,0,0,0-1.869-2.162,5.189,5.189,0,0,0-2.79-.751,5.112,5.112,0,0,0-2.766.76,5.015,5.015,0,0,0-1.871,2.192,7.8,7.8,0,0,0-.663,3.305v.721a7.652,7.652,0,0,0,.672,3.243,5.031,5.031,0,0,0,1.88,2.166,5.141,5.141,0,0,0,2.765.76,5.61,5.61,0,0,0,1.152-.114Zm-1.152-1.714a2.632,2.632,0,0,1-2.28-1.169,5.64,5.64,0,0,1-.812-3.243v-.747a5.454,5.454,0,0,1,.831-3.185,2.618,2.618,0,0,1,2.244-1.131,2.666,2.666,0,0,1,2.284,1.115,5.583,5.583,0,0,1,.81,3.28v.667a5.7,5.7,0,0,1-.8,3.288A2.632,2.632,0,0,1,8562.16,3460.348Z" transform="translate(-8194 -3099)" fill="#41c956"/>
    </g>
  </g>
</svg>
