<svg xmlns="http://www.w3.org/2000/svg" width="30" height="30" viewBox="0 0 30 30">
  <g id="그룹_8229" data-name="그룹 8229" transform="translate(-287 -520)">
    <g id="그룹_7755" data-name="그룹 7755" transform="translate(-1533 135.182)">
      <g id="그룹_7772" data-name="그룹 7772" transform="translate(-10 47.182)">
        <path id="사각형_752" data-name="사각형 752" d="M3,1.6A1.4,1.4,0,0,0,1.6,3V19A1.4,1.4,0,0,0,3,20.4H17A1.4,1.4,0,0,0,18.4,19V3A1.4,1.4,0,0,0,17,1.6H3M3,0H17a3,3,0,0,1,3,3V19a3,3,0,0,1-3,3H3a3,3,0,0,1-3-3V3A3,3,0,0,1,3,0Z" transform="translate(1835 341.818)"/>
        <path id="합치기_22" data-name="합치기 22" d="M9912,4295.819v-2h10v2Zm0-4v-2h10v2Z" transform="translate(-8072 -3938.001)"/>
      </g>
    </g>
    <rect id="사각형_2253" data-name="사각형 2253" width="30" height="30" transform="translate(287 520)" fill="none"/>
  </g>
</svg>
