<svg xmlns="http://www.w3.org/2000/svg" width="60" height="60" viewBox="0 0 60 60">
  <g id="그룹_8226" data-name="그룹 8226" transform="translate(6692 3454)">
    <g id="icon_03" transform="translate(-7978 -4421)">
      <path id="타원_69" data-name="타원 69" d="M30,4A26.008,26.008,0,0,0,19.881,53.958,26.008,26.008,0,0,0,40.119,6.042,25.833,25.833,0,0,0,30,4m0-4A30,30,0,1,1,0,30,30,30,0,0,1,30,0Z" transform="translate(1286 967)" fill="#fff"/>
      <path id="패스_9856" data-name="패스 9856" d="M45.685,33.749H43.377V31.981H45.2l-1.931-7.116h2.02l1.808,7.116h3.187l1.864-7.116h2.22l1.864,7.116h3.185l1.809-7.116h2.043l-1.943,7.116h1.832v1.768H60.834l-1.941,7.116H56.829l-1.965-7.116H51.657L49.7,40.865H47.617Zm2.908,4.088h.156l1.065-4.088H47.55Zm5.783-5.856-1.055-3.8h-.132l-1.044,3.8Zm3.385,5.856h.156l1.043-4.088H56.7Z" transform="translate(1262.734 964.135)" fill="#fff"/>
    </g>
    <rect id="사각형_2251" data-name="사각형 2251" width="60" height="60" transform="translate(-6692 -3454)" fill="none"/>
  </g>
</svg>
