<svg xmlns="http://www.w3.org/2000/svg" width="26" height="26.006" viewBox="0 0 26 26.006">
  <g id="그룹_8077" data-name="그룹 8077" transform="translate(-3874 -1620)">
    <g id="그룹_7754" data-name="그룹 7754" transform="translate(2052.001 1313.364)">
      <g id="그룹_7773" data-name="그룹 7773" transform="translate(0 -3)">
        <path id="패스_13461" data-name="패스 13461" d="M10,1.6a8.545,8.545,0,0,0-8.4,8.665c0,3.343,2.279,6.9,4.191,9.29A36.488,36.488,0,0,0,10.025,24a32.616,32.616,0,0,0,4.207-4.3c1.9-2.347,4.168-5.889,4.168-9.438A8.545,8.545,0,0,0,10,1.6M10,0A10.135,10.135,0,0,1,20,10.265C20,18.353,10.172,26.11,10,26c.023.267-10-8.008-10-15.731A10.135,10.135,0,0,1,10,0Z" transform="translate(1825 309.636)"/>
        <path id="타원_163" data-name="타원 163" d="M4,1.4A2.6,2.6,0,1,0,6.6,4,2.6,2.6,0,0,0,4,1.4M4,0A4,4,0,1,1,0,4,4,4,0,0,1,4,0Z" transform="translate(1831 315.636)"/>
      </g>
    </g>
    <rect id="사각형_2250" data-name="사각형 2250" width="26" height="26" transform="translate(3874 1620)" fill="none"/>
  </g>
</svg>
