<svg xmlns="http://www.w3.org/2000/svg" xmlns:xlink="http://www.w3.org/1999/xlink" width="24" height="24" viewBox="0 0 24 24">
  <defs>
    <clipPath id="clip-path">
      <rect id="사각형_796" data-name="사각형 796" width="24" height="24" transform="translate(1715 349)" fill="none"/>
    </clipPath>
  </defs>
  <g id="마스크_그룹_70" data-name="마스크 그룹 70" transform="translate(-1715 -349)" clip-path="url(#clip-path)">
    <g id="그룹_7924" data-name="그룹 7924" transform="translate(-108 43.182)">
      <g id="그룹_7773" data-name="그룹 7773" transform="translate(0 -3)">
        <g id="타원_73" data-name="타원 73" transform="translate(1824 309.818)" fill="none" stroke="#000" stroke-width="1.6">
          <circle cx="11" cy="11" r="11" stroke="none"/>
          <circle cx="11" cy="11" r="10.2" fill="none"/>
        </g>
        <g id="합치기_23" data-name="합치기 23" transform="translate(-8071.899 -4013.487)">
          <path d="M 9905.2431640625 4337.6982421875 C 9905.2353515625 4337.69775390625 9905.2275390625 4337.697265625 9905.21875 4337.69677734375 L 9905.17578125 4337.69482421875 L 9905.130859375 4337.69775390625 C 9905.126953125 4337.69775390625 9905.123046875 4337.6982421875 9905.119140625 4337.6982421875 C 9905.08203125 4337.6982421875 9905.029296875 4337.68798828125 9904.98046875 4337.63916015625 C 9904.9580078125 4337.61669921875 9904.943359375 4337.59423828125 9904.93359375 4337.56787109375 L 9904.8720703125 4337.4091796875 L 9904.751953125 4337.2890625 L 9902.271484375 4334.80908203125 C 9902.22265625 4334.7607421875 9902.212890625 4334.70703125 9902.212890625 4334.669921875 C 9902.212890625 4334.6318359375 9902.2236328125 4334.576171875 9902.271484375 4334.52783203125 C 9902.3203125 4334.47900390625 9902.3759765625 4334.46875 9902.4140625 4334.46875 C 9902.4521484375 4334.46875 9902.5078125 4334.47900390625 9902.556640625 4334.52783203125 L 9904.6162109375 4336.58740234375 L 9905.181640625 4337.15283203125 L 9905.7470703125 4336.58740234375 L 9911.2421875 4331.09228515625 C 9911.291015625 4331.04345703125 9911.3466796875 4331.033203125 9911.384765625 4331.033203125 C 9911.4228515625 4331.033203125 9911.478515625 4331.04345703125 9911.52734375 4331.09228515625 C 9911.6044921875 4331.169921875 9911.6044921875 4331.2958984375 9911.52734375 4331.37353515625 L 9905.6123046875 4337.28564453125 L 9905.4892578125 4337.40869140625 L 9905.4287109375 4337.5712890625 C 9905.419921875 4337.59521484375 9905.4052734375 4337.61669921875 9905.3857421875 4337.63623046875 C 9905.3349609375 4337.6875 9905.2802734375 4337.69775390625 9905.2431640625 4337.6982421875 Z" stroke="none"/>
          <path d="M 9905.2421875 4338.498046875 C 9905.2216796875 4338.498046875 9905.201171875 4338.4970703125 9905.1806640625 4338.49609375 C 9905.16015625 4338.49755859375 9905.1396484375 4338.498046875 9905.119140625 4338.498046875 C 9904.8642578125 4338.498046875 9904.6083984375 4338.39990234375 9904.4130859375 4338.203125 C 9904.310546875 4338.10107421875 9904.2353515625 4337.98193359375 9904.1865234375 4337.85498046875 L 9901.7060546875 4335.375 C 9901.3154296875 4334.98681640625 9901.3154296875 4334.3525390625 9901.7060546875 4333.9619140625 C 9902.0966796875 4333.57080078125 9902.7314453125 4333.57177734375 9903.1220703125 4333.9619140625 L 9905.181640625 4336.021484375 L 9910.6767578125 4330.5263671875 C 9911.0673828125 4330.13671875 9911.7021484375 4330.13525390625 9912.0927734375 4330.5263671875 C 9912.4833984375 4330.9169921875 9912.4833984375 4331.548828125 9912.0927734375 4331.939453125 L 9906.177734375 4337.8515625 C 9906.1298828125 4337.9794921875 9906.0537109375 4338.10009765625 9905.9501953125 4338.203125 C 9905.7548828125 4338.39990234375 9905.4990234375 4338.498046875 9905.2421875 4338.498046875 Z" stroke="none" fill="#000"/>
        </g>
      </g>
    </g>
  </g>
</svg>
