<svg xmlns="http://www.w3.org/2000/svg" xmlns:xlink="http://www.w3.org/1999/xlink" width="72" height="52" viewBox="0 0 72 52">
  <defs>
    <clipPath id="clip-path">
      <path id="사각형_2162" data-name="사각형 2162" d="M0,0H50a0,0,0,0,1,0,0V18a6,6,0,0,1-6,6H6a6,6,0,0,1-6-6V0A0,0,0,0,1,0,0Z" transform="translate(-0.439 0.746)"/>
    </clipPath>
  </defs>
  <g id="_04_icon" data-name="04_icon" transform="translate(2.287 -0.395)">
    <g id="마스크_그룹_66" data-name="마스크 그룹 66" transform="translate(9.152 27.648)" clip-path="url(#clip-path)">
      <path id="사각형_740" data-name="사각형 740" d="M2,2V28a4,4,0,0,0,4,4H44a4,4,0,0,0,4-4V2H2M0,0H50V28a6,6,0,0,1-6,6H6a6,6,0,0,1-6-6Z" transform="translate(-0.439 -9.254)" fill="#343440"/>
    </g>
    <path id="빼기_5" data-name="빼기 5" d="M36,32h0L0,16,36,0,72,16,36,32ZM31,15a1,1,0,0,0,0,2H41a1,1,0,1,0,0-2Z" transform="translate(-2.287 0.395)" fill="#41c956"/>
  </g>
</svg>
