<svg xmlns="http://www.w3.org/2000/svg" xmlns:xlink="http://www.w3.org/1999/xlink" width="72" height="72" viewBox="0 0 72 72">
  <defs>
    <clipPath id="clip-path">
      <rect id="사각형_2163" data-name="사각형 2163" width="72" height="72" transform="translate(1300 395)" fill="none" opacity="0.44"/>
    </clipPath>
  </defs>
  <g id="마스크_그룹_69" data-name="마스크 그룹 69" transform="translate(-1300 -395)" clip-path="url(#clip-path)">
    <g id="_06" data-name="06" transform="translate(1)">
      <g id="_06_icon" data-name="06_icon" transform="translate(1)">
        <path id="사각형_692" data-name="사각형 692" d="M8,1A7.008,7.008,0,0,0,1,8V40a7.008,7.008,0,0,0,7,7H59a7.008,7.008,0,0,0,7-7V8a7.008,7.008,0,0,0-7-7H8M8,0H59a8,8,0,0,1,8,8V40a8,8,0,0,1-8,8H8a8,8,0,0,1-8-8V8A8,8,0,0,1,8,0Z" transform="translate(1301 400)" fill="#707070"/>
        <path id="패스_9839" data-name="패스 9839" d="M0,0H18V18L9,14,0,18Z" transform="translate(1340 444)" fill="#fff"/>
        <path id="패스_9839_-_윤곽선" data-name="패스 9839 - 윤곽선" d="M1,1V16.461l8-3.556,8,3.556V1H1M0,0H18V18L9,14,0,18Z" transform="translate(1340 444)" fill="#707070"/>
        <circle id="타원_63" data-name="타원 63" cx="12" cy="12" r="12" transform="translate(1337 430)" fill="#41c956"/>
        <rect id="사각형_693" data-name="사각형 693" width="24" height="1" transform="translate(1311 410)" fill="#fff"/>
        <path id="사각형_693_-_윤곽선" data-name="사각형 693 - 윤곽선" d="M0,0H24V1H0Z" transform="translate(1311 410)" fill="#707070"/>
        <rect id="사각형_694" data-name="사각형 694" width="47" height="1" transform="translate(1311 419)" fill="#fff"/>
        <path id="사각형_694_-_윤곽선" data-name="사각형 694 - 윤곽선" d="M0,0H47V1H0Z" transform="translate(1311 419)" fill="#707070"/>
        <rect id="사각형_695" data-name="사각형 695" width="12" height="1" transform="translate(1311 428)" fill="#fff"/>
        <path id="사각형_695_-_윤곽선" data-name="사각형 695 - 윤곽선" d="M0,0H12V1H0Z" transform="translate(1311 428)" fill="#707070"/>
      </g>
    </g>
  </g>
</svg>
