<svg xmlns="http://www.w3.org/2000/svg" width="95" height="95" viewBox="0 0 95 95">
  <g id="그룹_8211" data-name="그룹 8211" transform="translate(1368 -2944)">
    <g id="_01_icon" data-name="01_icon" transform="translate(-1364.207 2944.775)">
      <path id="합치기_16" data-name="합치기 16" d="M40,2A37.967,37.967,0,0,0,2.013,38.992L2,39.5V85.06L14.756,68.478l1.591,1.267A38.01,38.01,0,1,0,40,2m0-2A40,40,0,1,1,15.1,71.309L0,90.941v-52H.014A40,40,0,0,1,40,0Z" transform="translate(3.207 1.225)" fill="#343440"/>
      <path id="빼기_4" data-name="빼기 4" d="M22,47A24.992,24.992,0,0,1,4.322,4.322,25,25,0,0,1,40.171,39.171L23.515,22.514A1,1,0,0,0,22.1,23.928l16.64,16.64A24.949,24.949,0,0,1,22,47Z" transform="translate(21.206 19.225)" fill="#41c956"/>
      <path id="타원_150" data-name="타원 150" d="M13,2A11,11,0,0,0,5.222,20.778,11,11,0,1,0,20.778,5.222,10.928,10.928,0,0,0,13,2m0-2A13,13,0,1,1,0,13,13,13,0,0,1,13,0Z" transform="translate(30.206 28.225)" fill="#fff"/>
    </g>
    <rect id="사각형_2234" data-name="사각형 2234" width="95" height="95" transform="translate(-1368 2944)" fill="none"/>
  </g>
</svg>
