<svg xmlns="http://www.w3.org/2000/svg" width="64" height="56" viewBox="0 0 64 56"><g transform="translate(-912 -316)"><path d="M2,2V46H62V2H2M0,0H64V48H0Z" transform="translate(912 316)" fill="#212121"/><path d="M0,0H64V2H0Z" transform="translate(912 356)" fill="#212121"/><path d="M-743,4649h-28v-2h8v-8h2v8h8v-8h2v8h8Z" transform="translate(1702 -4277)" fill="#212121"/><path d="M-604,4692v-2h2v2Zm0-5v-15h2v15Z" transform="translate(1548 -4345)" fill="#fff"/><path d="M-602,4692h-2v-2h2Zm0-5h-2v-15h2Z" transform="translate(1548 -4345)" fill="#a70638"/></g></svg>