<svg xmlns="http://www.w3.org/2000/svg" width="283.5" height="53.001" viewBox="0 0 283.5 53.001">
  <g id="그룹_7908" data-name="그룹 7908" transform="translate(-39.5 -166.5)">
    <g id="logo" transform="translate(-40 87)">
      <path id="합치기_14" data-name="합치기 14" d="M8711.6,4265.233v-.687h1.187c0-.12-.018-.488-.018-.488l-.018-.486-.088-2.429-.02-1.473-.014-1.212,0-.081,1.941-.009c1.14,0,2.346-.065,3.58-.179l.076-.011.116.665-.09.006c-1.116.116-2.2.18-3.228.195,0,0-1.429.013-1.561.016,0,.142.009,1.81.009,1.956h4.946v.689h-2v2.84h2.718v.688Zm1.972-.687h2.051v-2.84h-2.145C8713.476,4261.86,8713.559,4264.4,8713.567,4264.545Zm1.591-9.033.057-.081a4.932,4.932,0,0,0,.322-.549,4.359,4.359,0,0,0,.35-.941,9.662,9.662,0,0,0,.257-1.738c.039-.624.057-1.341.046-2.138l-.035-.886-.044-.576-.009-.094,1.143-.009a13.193,13.193,0,0,0,2.048-.184l.077-.009.166.685-.092.009a17.027,17.027,0,0,1-1.858.151l-.639,0v1.81h2.652v.688h-.867v4.123h-.785v-4.123h-1.014c-.013.214-.05.805-.05.805a8.757,8.757,0,0,1-.226,1.532,6.025,6.025,0,0,1-.409,1.2l-.037.074-.289.571Zm-1.921.273v-1.943a4.856,4.856,0,0,1-.687.759,5.125,5.125,0,0,1-.943.716l-.062.028-.544-.606.1-.048a4.524,4.524,0,0,0,1.042-.711,4.693,4.693,0,0,0,.871-1.055h-1.478v-.656h1.7v-.727h-1.686v-.685h.9c0-.02-.009-.037-.009-.037l-.109-.346-.143-.348-.19-.359.586-.219h-.844v-.65h1.479c0-.1,0-.319,0-.319l-.039-.488-.007-.092.785.05.09-.006-.039.3-.024.258v.3h1.407v.65h-.508l.241.085s-.427,1.046-.506,1.232h.987v.676H8714v.727h1.525v.656h-1.322a3.066,3.066,0,0,0,.856.788,6.1,6.1,0,0,1,.564.337l.055.048-.432.619-.065-.033a3.638,3.638,0,0,1-.646-.449,4.314,4.314,0,0,1-.536-.523v2.072Zm-.13-5.292.09.309s.021.055.022.063h.674c.027-.089.324-1.014.422-1.317h-1.632l.013.026.09.175s.151.326.148.322Z" transform="translate(-8608.49 -4151.029)" fill="#221f1f" stroke="rgba(0,0,0,0)" stroke-miterlimit="10" stroke-width="1"/>
      <path id="Shape_2_copy_2" data-name="Shape 2 copy 2" d="M65.948,24V16.33l-10.374-.017a.655.655,0,0,1-.657-.649V2.676c0-.791-1.4-.948-1.4-.948v-.64h9.3V3.241H58.755v10.91h7.193V1.42c0-.514-.928-.592-.928-.592V.29h4.614V8.276h1.916V1.42c0-.514-.929-.592-.929-.592V.29h4.637V23.943H71.551V10.29H69.635V24ZM7.262,23.949a.653.653,0,0,1-.656-.647V16.057a.863.863,0,0,0-.816-.713v-.613h4.642V21.8H22.486v2.148Zm29.274-.008V14.159H27.694V12.144H49.611v2.015H40.573v9.782Zm59.917-.027V16.875H83.635V14.749h16.74v9.165Zm8.641-2.337V19.5h4.5v-9.45h3.524V19.5h2.079v-9.45h3.522V19.5h7.651v2.072Zm16.089-3.915V3.949H107.263V1.77h17.294a.654.654,0,0,1,.655.649V17.662ZM18.621,15.938V1.42c0-.514-.929-.592-.929-.592V.29h4.77V15.938Zm77.866-2.753V1.42c0-.514-.929-.592-.929-.592V.29h4.77V6.059h2.2V8.072h-2.2v5.113ZM80.5,7.822a4.571,4.571,0,0,1,2.313-3.769h-2.6V1.914h4.748V1.223c0-.558-.915-.643-.915-.643V0h5.069V1.914h4.725V4.053H91.406a4.573,4.573,0,0,1,2.311,3.769c0,2.742-2.96,4.966-6.611,4.966S80.5,10.564,80.5,7.822Zm3.943,0a2.717,2.717,0,1,0,5.336,0,2.717,2.717,0,1,0-5.336,0ZM13.9,12.643,8.822,4.55,4.063,12.643H0L6.209,2.9a1.473,1.473,0,0,0,.114-.738c-.012-.514-.77-.531-.77-.531L5.6,1.106h4.458l7.9,11.537Zm29.557-1.63V3.266h-14.2V1.087H46.838a.654.654,0,0,1,.656.649v9.277Z" transform="translate(143.557 94)" fill="#fff"/>
      <g id="logo-2" data-name="logo" transform="translate(0 0.001)">
        <path id="패스_9862" data-name="패스 9862" d="M106.779,80.667s-21.445-.667-24.112,11-3.167,35.5,8,37c0,0,15.5,6.833,35.667-1.167,0,0,7.667-7.833,6.167-26.5s-12.667-18.667-12.667-18.667Z" fill="#fff"/>
        <path id="합치기_15" data-name="합치기 15" d="M8716.629,4294.768c-3.524-3.418-5.629-11.183-5.629-20.762,0-9.384,2.252-17.63,5.729-21,3.186-3.09,13.36-5,20.965-5s17.854,1.958,21.116,5.119c3.6,3.491,5.747,11.271,5.747,20.811,0,9.81-2.032,17.406-5.571,20.839-3.506,3.4-13.587,5.232-21.292,5.232C8730.1,4300,8720.135,4298.166,8716.629,4294.768Zm1.088-40.812c-2.454,2.384-5.32,9.061-5.32,20.05,0,9.234,1.953,16.638,5.22,19.805,2.8,2.71,11.611,4.835,20.078,4.835,8.589,0,17.507-2.125,20.3-4.835,3.283-3.183,5.164-10.431,5.164-19.882,0-10.818-2.758-17.351-5.338-19.854-2.915-2.822-12.761-4.721-20.129-4.721C8729.439,4249.354,8720.291,4251.461,8717.717,4253.956Zm1.854,39.505s8.852-7.815,18.237-7.815,18.158,7.892,18.158,7.892-6.364,3.885-18.272,3.885S8719.571,4293.461,8719.571,4293.461Zm24.92-19.438c0-11.665,13.991-16.852,13.991-16.852s3.458,5.11,3.458,16.852-3.381,16.847-3.381,16.847S8744.491,4285.685,8744.491,4274.023Zm-30.981,0c0-11.665,3.7-16.852,3.7-16.852s13.914,5.262,13.914,16.852-13.914,16.847-13.914,16.847S8713.51,4285.685,8713.51,4274.023Zm5.982-19.594s6.054-3.889,18.239-3.889,18.155,3.964,18.155,3.964-8.8,7.855-18.078,7.855S8719.492,4254.429,8719.492,4254.429Zm15.362,3.321a2.912,2.912,0,1,0,2.914-2.84A2.879,2.879,0,0,0,8734.854,4257.75Z" transform="translate(-8631 -4168)" fill="#94c948" stroke="rgba(0,0,0,0)" stroke-miterlimit="10" stroke-width="1"/>
        <path id="합치기_14-2" data-name="합치기 14" d="M8711.6,4265.233v-.687h1.187c0-.12-.018-.488-.018-.488l-.018-.486-.088-2.429-.02-1.473-.014-1.212,0-.081,1.941-.009c1.14,0,2.346-.065,3.58-.179l.076-.011.116.665-.09.006c-1.116.116-2.2.18-3.228.195,0,0-1.429.013-1.561.016,0,.142.009,1.81.009,1.956h4.946v.689h-2v2.84h2.718v.688Zm1.972-.687h2.051v-2.84h-2.145C8713.476,4261.86,8713.559,4264.4,8713.567,4264.545Zm1.591-9.033.057-.081a4.932,4.932,0,0,0,.322-.549,4.359,4.359,0,0,0,.35-.941,9.662,9.662,0,0,0,.257-1.738c.039-.624.057-1.341.046-2.138l-.035-.886-.044-.576-.009-.094,1.143-.009a13.193,13.193,0,0,0,2.048-.184l.077-.009.166.685-.092.009a17.027,17.027,0,0,1-1.858.151l-.639,0v1.81h2.652v.688h-.867v4.123h-.785v-4.123h-1.014c-.013.214-.05.805-.05.805a8.757,8.757,0,0,1-.226,1.532,6.025,6.025,0,0,1-.409,1.2l-.037.074-.289.571Zm-1.921.273v-1.943a4.856,4.856,0,0,1-.687.759,5.125,5.125,0,0,1-.943.716l-.062.028-.544-.606.1-.048a4.524,4.524,0,0,0,1.042-.711,4.693,4.693,0,0,0,.871-1.055h-1.478v-.656h1.7v-.727h-1.686v-.685h.9c0-.02-.009-.037-.009-.037l-.109-.346-.143-.348-.19-.359.586-.219h-.844v-.65h1.479c0-.1,0-.319,0-.319l-.039-.488-.007-.092.785.05.09-.006-.039.3-.024.258v.3h1.407v.65h-.508l.241.085s-.427,1.046-.506,1.232h.987v.676H8714v.727h1.525v.656h-1.322a3.066,3.066,0,0,0,.856.788,6.1,6.1,0,0,1,.564.337l.055.048-.432.619-.065-.033a3.638,3.638,0,0,1-.646-.449,4.314,4.314,0,0,1-.536-.523v2.072Zm-.13-5.292.09.309s.021.055.022.063h.674c.027-.089.324-1.014.422-1.317h-1.632l.013.026.09.175s.151.326.148.322Z" transform="translate(-8608.49 -4151.029)" fill="#221f1f" stroke="rgba(0,0,0,0)" stroke-miterlimit="10" stroke-width="1"/>
      </g>
    </g>
    <text id="입학안내" transform="translate(240 201)" fill="#fff" font-size="24" font-family="Pretendard-Bold, Pretendard" font-weight="700"><tspan x="0" y="0">입학안내</tspan></text>
  </g>
</svg>
