<svg xmlns="http://www.w3.org/2000/svg" width="189.922" height="52" viewBox="0 0 189.922 52">
  <g id="logo" transform="translate(-80 -80)">
    <path id="Shape_2_copy" data-name="Shape 2 copy" d="M5.628,46.768C2.105,43.35,0,35.586,0,26.005,0,16.621,2.25,8.376,5.731,5,8.914,1.91,19.091,0,26.694,0S44.549,1.956,47.809,5.117c3.6,3.492,5.748,11.272,5.748,20.811,0,9.81-2.032,17.406-5.572,20.841C44.48,50.166,34.4,52,26.694,52,19.1,52,9.134,50.166,5.628,46.768ZM6.718,5.957C4.262,8.341,1.4,15.016,1.4,26.005c0,9.234,1.953,16.638,5.221,19.806,2.8,2.71,11.612,4.834,20.078,4.834,8.589,0,17.507-2.124,20.3-4.834,3.285-3.183,5.165-10.431,5.165-19.884,0-10.817-2.759-17.349-5.34-19.853C43.908,3.251,34.063,1.353,26.694,1.353,18.44,1.353,9.29,3.462,6.718,5.957Zm1.854,39.5s8.851-7.814,18.237-7.814,18.157,7.891,18.157,7.891S38.6,49.423,26.694,49.423,8.572,45.46,8.572,45.46ZM33.49,26.022c0-11.663,13.992-16.85,13.992-16.85s3.458,5.109,3.458,16.85-3.38,16.847-3.38,16.847S33.49,37.685,33.49,26.022Zm-30.981,0c0-11.663,3.7-16.85,3.7-16.85s13.915,5.26,13.915,16.85S6.213,42.869,6.213,42.869,2.51,37.685,2.51,26.022Zm20.6,8.181v-.687h1.186c0-.121-.019-.488-.019-.488l-.018-.485-.086-2.43-.021-1.472-.012-1.212,0-.081,1.941-.008c1.14,0,2.345-.066,3.58-.18l.078-.01.115.664-.089.007c-1.115.117-2.2.18-3.228.195l-1.559.015c0,.142.008,1.811.008,1.957h4.945v.689h-2v2.839h2.717V34.2Zm1.97-.687h2.051V30.676H24.982C24.987,30.832,25.068,33.369,25.077,33.515Zm1.591-9.031.057-.083a5.276,5.276,0,0,0,.321-.549,4.2,4.2,0,0,0,.35-.939,9.627,9.627,0,0,0,.256-1.74c.04-.622.056-1.341.046-2.138l-.034-.884-.045-.578-.007-.093,1.141-.008a13.2,13.2,0,0,0,2.046-.184l.079-.01.166.685-.092.009a17.2,17.2,0,0,1-1.857.152l-.64,0v1.81h2.652v.686h-.866v4.122h-.786V20.625H28.442c-.012.214-.049.805-.049.805a8.751,8.751,0,0,1-.227,1.531,6.146,6.146,0,0,1-.41,1.2l-.038.073-.287.571Zm-1.921.273V22.814a5.915,5.915,0,0,1-1.631,1.473l-.062.03-.544-.608.1-.046a4.615,4.615,0,0,0,1.041-.712,4.667,4.667,0,0,0,.87-1.056H23.044V21.24h1.7v-.727H23.062v-.685h.9l-.007-.037-.109-.346L23.7,19.1l-.189-.359.585-.22h-.844V17.87h1.48c0-.1,0-.321,0-.321l-.038-.487,0-.092.783.05.09-.006-.039.3-.025.258v.3h1.408v.649H26.4l.24.085s-.426,1.046-.5,1.231h.987v.677H25.513v.727h1.526V21.9H25.716a3.043,3.043,0,0,0,.856.788,6.49,6.49,0,0,1,.565.337l.053.048-.43.62-.067-.033a3.782,3.782,0,0,1-.644-.448,4.462,4.462,0,0,1-.537-.523v2.071Zm-.129-5.291.09.306s.019.056.021.064H25.4c.028-.088.325-1.011.423-1.317H24.194l.013.025s.089.177.088.177.151.326.148.322ZM8.494,6.428S14.545,2.54,26.731,2.54,44.888,6.5,44.888,6.5s-8.8,7.854-18.079,7.854S8.494,6.428,8.494,6.428ZM23.856,9.751a2.911,2.911,0,1,0,2.912-2.84A2.877,2.877,0,0,0,23.856,9.751Z" transform="translate(80 80)" fill="#fff"/>
    <g id="그룹_64" data-name="그룹 64" transform="translate(143.557 84.491)">
      <path id="Shape_2_copy_2" data-name="Shape 2 copy 2" d="M65.948,24V16.33l-10.374-.017a.655.655,0,0,1-.657-.649V2.676c0-.791-1.4-.948-1.4-.948v-.64h9.3V3.241H58.755v10.91h7.193V1.42c0-.514-.928-.592-.928-.592V.29h4.614V8.276h1.916V1.42c0-.514-.929-.592-.929-.592V.29h4.637V23.943H71.551V10.29H69.635V24ZM7.262,23.949a.653.653,0,0,1-.656-.647V16.057a.863.863,0,0,0-.816-.713v-.613h4.642V21.8H22.486v2.148Zm29.274-.008V14.159H27.694V12.144H49.611v2.015H40.573v9.782Zm59.917-.027V16.875H83.635V14.749h16.74v9.165Zm8.641-2.337V19.5h4.5v-9.45h3.524V19.5h2.079v-9.45h3.522V19.5h7.651v2.072Zm16.089-3.915V3.949H107.263V1.77h17.294a.654.654,0,0,1,.655.649V17.662ZM18.621,15.938V1.42c0-.514-.929-.592-.929-.592V.29h4.77V15.938Zm77.866-2.753V1.42c0-.514-.929-.592-.929-.592V.29h4.77V6.059h2.2V8.072h-2.2v5.113ZM80.5,7.822a4.571,4.571,0,0,1,2.313-3.769h-2.6V1.914h4.748V1.223c0-.558-.915-.643-.915-.643V0h5.069V1.914h4.725V4.053H91.406a4.573,4.573,0,0,1,2.311,3.769c0,2.742-2.96,4.966-6.611,4.966S80.5,10.564,80.5,7.822Zm3.943,0a2.717,2.717,0,1,0,5.336,0,2.717,2.717,0,1,0-5.336,0ZM13.9,12.643,8.822,4.55,4.063,12.643H0L6.209,2.9a1.473,1.473,0,0,0,.114-.738c-.012-.514-.77-.531-.77-.531L5.6,1.106h4.458l7.9,11.537Zm29.557-1.63V3.266h-14.2V1.087H46.838a.654.654,0,0,1,.656.649v9.277Z" transform="translate(0 9.509)" fill="#fff"/>
    </g>
  </g>
</svg>
