<svg id="KakaoCh" xmlns="http://www.w3.org/2000/svg" width="19.478" height="20.56" viewBox="0 0 19.478 20.56">
  <rect id="사각형_746" data-name="사각형 746" width="14" height="9" transform="translate(2.478 4.559)" fill="#fee500"/>
  <path id="패스_127" data-name="패스 127" d="M9.739,0C4.36,0,0,4.025,0,8.99A7.859,7.859,0,0,0,3.647,16l.01,0v4.3a.248.248,0,0,0,.4.2l3.693-2.737.08.034a10.55,10.55,0,0,0,1.914.175c5.379,0,9.739-4.026,9.739-8.991S15.118,0,9.739,0M6.474,11.268A2.034,2.034,0,0,0,8.491,9.818H9.9a3.377,3.377,0,0,1-3.429,2.807A3.578,3.578,0,0,1,2.8,8.98a3.578,3.578,0,0,1,3.67-3.644A3.38,3.38,0,0,1,9.913,8.2H8.505A2.007,2.007,0,0,0,6.474,6.673,2.2,2.2,0,0,0,4.182,8.98a2.258,2.258,0,0,0,2.292,2.288m9.3,1.216H14.484V9.572a.929.929,0,0,0-.993-1.032c-.672,0-1.1.41-1.1,1.242v2.7H11.093V5.359h1.294v2.68a1.661,1.661,0,0,1,1.494-.7,1.778,1.778,0,0,1,1.354.551,2.076,2.076,0,0,1,.542,1.522Z"/>
</svg>
